<svg width="14" height="14" viewBox="0 0 14 14" fill="none" xmlns="http://www.w3.org/2000/svg">
<path d="M12.8167 5.59688C12.7765 5.46715 12.6695 5.37261 12.5408 5.35302L8.92407 4.80207L7.30658 1.36647C7.24902 1.24417 7.13019 1.16675 7.0001 1.16675C6.86999 1.16675 6.75118 1.24417 6.6936 1.36647L5.07604 4.80207L1.45939 5.35302C1.33067 5.37261 1.22369 5.46715 1.18349 5.59686C1.14328 5.72659 1.17682 5.86898 1.26999 5.96417L3.88696 8.63842L3.26927 12.4145C3.24725 12.549 3.29998 12.6848 3.40523 12.765C3.46477 12.8103 3.5353 12.8334 3.60616 12.8334C3.66058 12.8334 3.71517 12.8198 3.76517 12.7923L7.00008 11.0094L10.2349 12.7922C10.35 12.8557 10.4896 12.8451 10.5948 12.765C10.7001 12.6848 10.7528 12.5489 10.7308 12.4145L10.1129 8.63842L12.7302 5.96415C12.8233 5.86898 12.8569 5.72659 12.8167 5.59688Z" fill="#FFA800"/>
</svg>
