<svg width="14" height="14" viewBox="0 0 14 14" fill="none" xmlns="http://www.w3.org/2000/svg">
<path d="M12.8167 5.59679C12.7765 5.46706 12.6695 5.37252 12.5408 5.35293L8.92407 4.80197L7.30658 1.36638C7.24902 1.24407 7.13019 1.16666 7.0001 1.16666C6.86999 1.16666 6.75118 1.24407 6.6936 1.36638L5.07604 4.80197L1.45939 5.35293C1.33067 5.37252 1.22369 5.46706 1.18349 5.59677C1.14328 5.7265 1.17682 5.86889 1.26999 5.96408L3.88696 8.63833L3.26927 12.4145C3.24725 12.5489 3.29998 12.6847 3.40523 12.7649C3.46477 12.8102 3.5353 12.8333 3.60616 12.8333C3.66058 12.8333 3.71517 12.8197 3.76517 12.7922L7.00008 11.0093L10.2349 12.7921C10.35 12.8556 10.4896 12.845 10.5948 12.7649C10.7001 12.6847 10.7528 12.5488 10.7308 12.4144L10.1129 8.63833L12.7302 5.96405C12.8233 5.86889 12.8569 5.7265 12.8167 5.59679Z" fill="white"/>
</svg>
